<svg width="227" height="44" viewBox="0 0 227 44" fill="none" xmlns="http://www.w3.org/2000/svg">
<g clip-path="url(#clip0_1_3)">
<path d="M81.4447 5.84061C80.1695 4.02194 78.0791 2.84209 75.2263 2.84209C72.3734 2.84209 68.7975 4.61513 68.7975 8.45453C68.7975 12.2939 71.9921 13.2261 75.3512 14.3212C79.6107 15.7162 84.291 17.0655 84.291 23.0625C84.291 29.0596 79.2229 31.6735 74.4572 31.6735C70.7958 31.6735 67.1344 30.1938 64.9651 27.2409L67.6077 25.2984C68.9289 27.4104 71.3545 29.0531 74.5032 29.0531C77.6519 29.0531 81.1884 27.1105 81.1884 23.2711C81.1884 19.0928 77.6519 18.0368 73.8261 16.8569C69.8229 15.6314 65.7342 13.904 65.7342 8.50016C65.7342 2.71824 70.9272 0.267273 75.3577 0.267273C79.4004 0.267273 82.4242 1.95557 83.8703 3.89809L81.4447 5.84061Z" fill="white"/>
<path d="M104.945 31.6735C95.9588 31.6735 89.2342 25.0442 89.2342 15.9704C89.2342 6.89661 95.9654 0.267273 104.945 0.267273C113.924 0.267273 120.655 6.89661 120.655 15.9704C120.655 25.0442 113.931 31.6735 104.945 31.6735ZM104.945 2.92683C97.1946 2.92683 92.4683 9.00861 92.4683 15.9704C92.4683 22.9322 97.1946 28.9748 104.945 28.9748C112.695 28.9748 117.421 22.9387 117.421 15.9704C117.421 9.00209 112.695 2.92683 104.945 2.92683Z" fill="white"/>
<path d="M130.108 30.9174H127.045V1.02344H145.227V3.72862H130.114V14.1126H144.162V16.7722H130.114V30.9174H130.108Z" fill="white"/>
<path d="M154.028 30.9174H150.965V1.02344H159.82C165.782 1.02344 170.12 3.17455 170.12 9.0021C170.12 13.4347 166.801 16.2181 162.416 16.6874L171.231 30.9174H167.484L159.143 16.9417H154.035V30.9174H154.028ZM154.028 14.3212H159.353C164.25 14.3212 167.057 12.5482 167.057 9.0021C167.057 5.07796 164.033 3.63736 159.478 3.63736H154.028V14.3212Z" fill="white"/>
<path d="M179.533 28.2122H195.671V30.9174H176.47V1.02344H195.158V3.72862H179.533V14.0279H194.133V16.6874H179.533V28.2122Z" fill="white"/>
<path d="M224.528 6.38816C222.445 4.19142 219.546 2.92683 215.799 2.92683C208.049 2.92683 203.283 9.00861 203.283 15.9704C203.283 22.9322 208.049 28.9748 215.799 28.9748C219.204 28.9748 222.188 28.1731 223.93 27.0323V17.9585H216.903V15.299H226.993V28.7662C223.713 30.7088 219.842 31.68 215.753 31.68C206.642 31.68 200.042 25.0507 200.042 15.9769C200.042 6.90313 206.78 0.267273 215.759 0.267273C220.525 0.267273 224.101 1.78609 226.658 4.27616L224.528 6.38816Z" fill="white"/>
<path d="M57.6226 31.9408H51.3713L44.0222 19.5882H35.6214C35.0824 19.5882 34.8128 19.8554 34.8128 20.3899V31.9342H29.1794V28.5055C29.5015 27.9645 29.7645 27.3778 29.9682 26.7651C30.4021 25.4874 30.619 24.0729 30.619 22.5606C30.619 21.3025 30.4481 20.0314 30.1194 18.7799C29.9617 18.1802 29.7382 17.6065 29.4555 17.059C29.6527 16.3745 29.9617 15.827 30.3758 15.4163C31.1712 14.6276 32.4596 14.2365 34.241 14.2365H46.7896C47.585 14.2365 48.2686 14.1126 48.8405 13.8584C49.4124 13.6042 49.8726 13.2717 50.221 12.8676C50.5693 12.4569 50.8323 11.9876 51.0098 11.4465C51.1872 10.912 51.2727 10.3579 51.2727 9.79083C51.2727 8.65661 50.9177 7.67231 50.2012 6.83142C49.4847 5.99705 48.3475 5.57986 46.7896 5.57986H21.2716C21.2059 5.57986 21.1336 5.57986 21.0678 5.57986H10.1954C10.1954 5.57986 10.1625 5.57986 10.1494 5.57986C9.82069 5.57986 9.51174 5.59942 9.22251 5.63853C8.24965 5.7689 7.50685 6.10135 7.00069 6.64238C6.33021 7.3529 6.00153 8.25898 6.00153 9.36061C6.00153 9.83646 6.07384 10.2993 6.21846 10.7556C6.36307 11.2119 6.61286 11.6225 6.98097 11.9876C7.34909 12.3526 7.82895 12.6329 8.4337 12.8415C9.03846 13.0501 9.81412 13.1479 10.7738 13.1479H18.3136C20.5091 13.1479 22.3036 13.4216 23.7038 13.9757C25.1039 14.5298 26.2082 15.2468 27.0168 16.1268C27.8253 17.0133 28.384 18.0172 28.6864 19.1579C28.9888 20.2922 29.14 21.4264 29.14 22.5671C29.14 23.923 28.9494 25.168 28.5681 26.3022C28.1868 27.4365 27.5821 28.4273 26.7538 29.2616C25.9256 30.096 24.8673 30.7544 23.5789 31.2237C22.2905 31.6996 20.726 31.9342 18.8789 31.9342H0C0 31.8495 0 31.7648 0 31.68C0.0328671 30.9173 0.223496 30.1938 0.532447 29.5419C0.808531 28.9618 1.18979 28.4338 1.64336 27.984C1.93259 27.6972 2.26126 27.4365 2.60965 27.2148C3.48391 26.6673 4.51594 26.3479 5.62685 26.3479H19.0629C20.588 26.3479 21.712 25.9763 22.4285 25.2332C23.145 24.4901 23.5 23.5384 23.5 22.3716C23.5 21.8696 23.4211 21.3677 23.2633 20.8788C23.1056 20.3899 22.8361 19.9662 22.4548 19.6012C22.0736 19.2362 21.5543 18.9493 20.9035 18.7277C20.2527 18.5061 19.431 18.3953 18.445 18.3953H10.9513C10.4715 18.3953 10.0113 18.3822 9.5709 18.3562C8.02615 18.2649 6.71804 18.0107 5.65314 17.5935C4.28587 17.059 3.2144 16.3485 2.43217 15.4619C1.86685 14.8231 1.43301 14.1322 1.11748 13.3825C0.992587 13.0892 0.893985 12.7893 0.808531 12.483C0.506154 11.3813 0.354965 10.2732 0.354965 9.17157C0.354965 7.90046 0.525874 6.7206 0.861118 5.63853C0.861118 5.61898 0.874265 5.59942 0.880839 5.57986C0.887412 5.55379 0.893985 5.53423 0.900559 5.50816C1.26867 4.38698 1.85371 3.41572 2.66881 2.6009C3.47734 1.77957 4.52251 1.14075 5.79119 0.684457C6.93496 0.280309 8.27594 0.0521604 9.81412 0.00653076C9.92587 0.00653076 10.031 0.00653076 10.1428 0.00653076C10.2217 0.00653076 10.3006 0.00653076 10.3794 0.00653076H46.5924C48.4067 0.00653076 49.9646 0.267272 51.2661 0.788753C52.5677 1.31023 53.6457 2.0012 54.4871 2.86816C55.3285 3.73512 55.953 4.75201 56.3474 5.91883C56.7418 7.08564 56.9456 8.29809 56.9456 9.56268C56.9456 10.573 56.8207 11.5769 56.5643 12.5677C56.3079 13.5585 55.9135 14.4907 55.3679 15.3576C54.8289 16.2246 54.1256 16.9873 53.271 17.6522C52.4099 18.3171 51.3647 18.819 50.1223 19.1645L57.6161 31.9408H57.6226Z" fill="white"/>
<path d="M56.7352 43.8501C56.5511 43.7523 56.4131 43.6089 56.3079 43.4264C56.2093 43.2439 56.1567 43.0287 56.1567 42.7941H56.584C56.584 43.0353 56.6563 43.2373 56.8009 43.3873C56.9456 43.5372 57.1362 43.6154 57.3728 43.6154H58.0367C58.2734 43.6154 58.4574 43.5633 58.6021 43.459C58.7467 43.3547 58.819 43.2178 58.819 43.0483V42.6702C58.819 42.5333 58.7664 42.4225 58.6612 42.3247C58.556 42.227 58.4114 42.1683 58.2274 42.1422L57.1559 41.9662C56.8535 41.9141 56.6169 41.8098 56.4525 41.6468C56.2882 41.4839 56.2028 41.2818 56.2028 41.0406V40.7212C56.2028 40.4344 56.3079 40.2062 56.5248 40.0302C56.7418 39.8607 57.031 39.776 57.386 39.776H58.0565C58.3917 39.776 58.6678 39.8803 58.8716 40.0824C59.0753 40.2844 59.1805 40.5517 59.1805 40.8841H58.7532C58.7532 40.669 58.6875 40.493 58.5626 40.3627C58.4377 40.2323 58.2668 40.1671 58.0565 40.1671H57.386C57.1625 40.1671 56.9784 40.2193 56.8469 40.317C56.7089 40.4148 56.6432 40.5517 56.6432 40.7212V41.0406C56.6432 41.1775 56.6958 41.2948 56.7944 41.3861C56.893 41.4839 57.0376 41.5425 57.2151 41.5751L58.28 41.7576C58.5889 41.8163 58.8321 41.9206 59.003 42.0705C59.1739 42.227 59.2594 42.4225 59.2594 42.6637V43.0418C59.2594 43.3286 59.1476 43.5633 58.9241 43.7327C58.7007 43.9022 58.4114 43.9935 58.0499 43.9935H57.3662C57.1296 43.9935 56.9193 43.9413 56.7352 43.8436V43.8501Z" fill="white"/>
<path d="M70.9798 43.8175C70.7695 43.6936 70.6051 43.5241 70.4868 43.296C70.3685 43.0743 70.3093 42.8136 70.3093 42.5138V41.2492C70.3093 40.9558 70.3685 40.6951 70.4868 40.4669C70.6051 40.2453 70.7695 40.0693 70.9798 39.9455C71.1902 39.8216 71.4334 39.7629 71.7095 39.7629H72.3405C72.6166 39.7629 72.8598 39.8216 73.0702 39.9455C73.2805 40.0693 73.4449 40.2388 73.5632 40.4669C73.6815 40.6886 73.7407 40.9493 73.7407 41.2492V42.5138C73.7407 42.8071 73.6815 43.0678 73.5632 43.2895C73.4449 43.5111 73.2805 43.6871 73.0702 43.8109C72.8598 43.9348 72.6166 43.9935 72.3405 43.9935H71.7029C71.4268 43.9935 71.1902 43.9348 70.9798 43.8109V43.8175ZM72.3274 43.6089C72.6166 43.6089 72.8532 43.5111 73.0307 43.309C73.2082 43.1069 73.3002 42.8462 73.3002 42.5203V41.2557C73.3002 40.9298 73.2082 40.6625 73.0307 40.4669C72.8532 40.2649 72.6166 40.1671 72.3274 40.1671H71.7226C71.4334 40.1671 71.1967 40.2649 71.0193 40.4669C70.8418 40.669 70.7497 40.9298 70.7497 41.2557V42.5203C70.7497 42.8462 70.8352 43.1135 71.0127 43.309C71.1902 43.5111 71.4202 43.6089 71.7095 43.6089H72.3208H72.3274Z" fill="white"/>
<path d="M85.0732 43.85C85.0075 43.7848 84.9746 43.6871 84.9746 43.5632V39.8151H85.4151V43.5567H87.6763V43.9478H85.3625C85.2376 43.9478 85.1455 43.9152 85.0732 43.85Z" fill="white"/>
<path d="M99.1601 43.8305C98.9629 43.7197 98.8117 43.5567 98.7065 43.3546C98.6013 43.146 98.5487 42.9114 98.5487 42.6441V39.8216H98.9892V42.6572C98.9892 42.944 99.068 43.1786 99.2192 43.3481C99.377 43.5241 99.5808 43.6089 99.8306 43.6089H100.475C100.731 43.6089 100.935 43.5241 101.086 43.3481C101.244 43.1721 101.316 42.944 101.316 42.6572V39.8216H101.757V42.6441C101.757 42.9114 101.704 43.146 101.599 43.3546C101.494 43.5632 101.342 43.7197 101.145 43.8305C100.948 43.9413 100.725 44 100.475 44H99.8306C99.5742 44 99.3507 43.9413 99.1601 43.8305Z" fill="white"/>
<path d="M114.115 40.1997H112.793V39.8216H115.876V40.1997H114.555V43.9543H114.115V40.1997Z" fill="white"/>
<path d="M126.985 39.8216H127.426V43.9543H126.985V39.8216Z" fill="white"/>
<path d="M139.383 43.8175C139.172 43.6936 139.008 43.5241 138.89 43.296C138.771 43.0743 138.712 42.8136 138.712 42.5138V41.2492C138.712 40.9558 138.771 40.6951 138.89 40.4669C139.008 40.2453 139.172 40.0693 139.383 39.9455C139.593 39.8216 139.836 39.7629 140.112 39.7629H140.744C141.02 39.7629 141.263 39.8216 141.473 39.9455C141.684 40.0693 141.848 40.2388 141.966 40.4669C142.085 40.6886 142.144 40.9493 142.144 41.2492V42.5138C142.144 42.8071 142.085 43.0678 141.966 43.2895C141.848 43.5111 141.684 43.6871 141.473 43.8109C141.263 43.9348 141.02 43.9935 140.744 43.9935H140.106C139.83 43.9935 139.593 43.9348 139.383 43.8109V43.8175ZM140.737 43.6089C141.026 43.6089 141.263 43.5111 141.44 43.309C141.618 43.1069 141.71 42.8462 141.71 42.5203V41.2557C141.71 40.9298 141.618 40.6625 141.44 40.4669C141.263 40.2649 141.026 40.1671 140.737 40.1671H140.132C139.843 40.1671 139.606 40.2649 139.429 40.4669C139.251 40.669 139.159 40.9298 139.159 41.2557V42.5203C139.159 42.8462 139.245 43.1135 139.422 43.309C139.6 43.5111 139.83 43.6089 140.119 43.6089H140.73H140.737Z" fill="white"/>
<path d="M153.378 39.8216H153.792L156.106 43.2634V39.8216H156.533V43.9543H156.119L153.812 40.5321V43.9543H153.384V39.8216H153.378Z" fill="white"/>
<path d="M168.319 43.8501C168.135 43.7523 167.997 43.6089 167.892 43.4264C167.793 43.2439 167.741 43.0287 167.741 42.7941H168.168C168.168 43.0353 168.24 43.2373 168.385 43.3873C168.529 43.5372 168.72 43.6154 168.957 43.6154H169.621C169.857 43.6154 170.041 43.5633 170.186 43.459C170.331 43.3547 170.403 43.2178 170.403 43.0483V42.6702C170.403 42.5333 170.35 42.4225 170.245 42.3247C170.14 42.227 169.995 42.1683 169.811 42.1422L168.74 41.9662C168.437 41.9141 168.201 41.8098 168.036 41.6468C167.872 41.4839 167.787 41.2818 167.787 41.0406V40.7212C167.787 40.4344 167.892 40.2062 168.109 40.0302C168.326 39.8607 168.615 39.776 168.97 39.776H169.64C169.976 39.776 170.252 39.8803 170.455 40.0824C170.659 40.2844 170.764 40.5517 170.764 40.8841H170.337C170.337 40.669 170.271 40.493 170.146 40.3627C170.022 40.2323 169.851 40.1671 169.64 40.1671H168.97C168.746 40.1671 168.562 40.2193 168.431 40.317C168.293 40.4148 168.227 40.5517 168.227 40.7212V41.0406C168.227 41.1775 168.28 41.2948 168.378 41.3861C168.477 41.4839 168.621 41.5425 168.799 41.5751L169.864 41.7576C170.173 41.8163 170.416 41.9206 170.587 42.0705C170.758 42.227 170.843 42.4225 170.843 42.6637V43.0418C170.843 43.3286 170.732 43.5633 170.508 43.7327C170.285 43.9022 169.995 43.9935 169.634 43.9935H168.95C168.713 43.9935 168.503 43.9413 168.319 43.8436V43.8501Z" fill="white"/>
</g>
<defs>
<clipPath id="clip0_1_3">
<rect width="227" height="44" fill="white"/>
</clipPath>
</defs>
</svg>
